<?xml version="1.0" encoding="utf-8"?>
<!-- Generator: Adobe Illustrator 23.0.2, SVG Export Plug-In . SVG Version: 6.00 Build 0)  -->
<svg version="1.1" id="레이어_1" xmlns="http://www.w3.org/2000/svg" xmlns:xlink="http://www.w3.org/1999/xlink" x="0px"
	 y="0px" viewBox="0 0 182 116" style="enable-background:new 0 0 182 116;" xml:space="preserve">
<style type="text/css">
	.st0{fill:#ECC488;}
	.st1{fill:#468C84;stroke:#468C84;stroke-miterlimit:10;}
	.st2{enable-background:new    ;}
	.st3{fill:#468C84;}
</style>
<g>
	<path class="st0" d="M157.8,112.3h-133c-10.5,0-19-8.5-19-19v-70c0-10.5,8.5-19,19-19h133c10.5,0,19,8.5,19,19v70
		C176.8,103.8,168.3,112.3,157.8,112.3z"/>
	<rect x="5.8" y="26.8" class="st1" width="171" height="63"/>
	<g>
		<g>
			<g class="st2">
				<path class="st0" d="M35.1,55.8c0,0.7-0.3,1.3-0.8,1.8c-0.5,0.4-1.2,0.7-2,0.7h-4.5v-6.4h-2c-0.6,0-1.1-0.2-1.5-0.6
					c-0.4-0.4-0.6-0.9-0.6-1.5v-2.3h-3.3c0.3,1.3,0.8,2.2,1.4,2.9c1.2,1.2,2.6,1.8,4.1,2v5.8c-1.8,0-3.6-0.4-5.5-1.2
					s-3.3-1.8-4.1-3.1c-0.9,1.3-2.3,2.3-4.3,3.1c-2,0.8-3.9,1.2-5.7,1.2v-5.8c1.5-0.2,2.9-0.8,4.2-2c0.7-0.6,1.2-1.6,1.6-2.9H8.5
					c-0.7,0-1.2-0.2-1.5-0.5c-0.3-0.3-0.4-0.8-0.4-1.5v-3.6h6V39h7.5v2.8h5.8v3.6c0,0.5-0.1,0.8-0.2,1.1h2.1v-5.3h7.3V55.8z
					 M35.1,66.9c0,0.7-0.2,1.2-0.5,1.5c-0.3,0.3-0.8,0.4-1.5,0.4H16.3v1h19.1v2.6c0,0.7-0.2,1.2-0.5,1.5c-0.4,0.3-0.9,0.5-1.6,0.5
					H11.1c-0.7,0-1.2-0.2-1.6-0.5S9,73,9,72.3v-7.8h18.8v-0.9H10.9c-0.7,0-1.2-0.1-1.5-0.4c-0.3-0.3-0.5-0.8-0.5-1.5V59h26.2V66.9z"
					/>
				<path class="st0" d="M59.1,64.5v7.2c0,0.7-0.3,1.3-0.9,1.9c-0.6,0.5-1.3,0.8-2.1,0.8h-4.4v-9.8H42c-0.8,0-1.3-0.2-1.7-0.5
					c-0.4-0.3-0.6-0.9-0.6-1.7v-3.3h30.9v3.3c0,0.8-0.2,1.3-0.6,1.7c-0.4,0.3-1,0.5-1.7,0.5H59.1z M55.2,51.2
					c-1.1,1.8-3,3.3-5.7,4.6c-2.8,1.3-5.7,2-8.7,2v-5.7c2.5,0,4.9-0.8,7.2-2.3c2.3-1.5,3.5-3.6,3.5-6.3v-2.4h7.3v2.4
					c0,2.7,1.2,4.8,3.5,6.3c2.3,1.5,4.7,2.3,7.2,2.3v5.7c-3,0-5.9-0.7-8.7-2C58.2,54.5,56.3,53,55.2,51.2z"/>
				<path class="st0" d="M73.6,46.8c0-1.7,0.5-3.1,1.5-4.1c1-1,2.4-1.5,4.1-1.5h8.1c1.7,0,3,0.5,4,1.5c1,1,1.5,2.4,1.5,4.1V57
					c0,1.7-0.5,3-1.5,4.1c-1,1-2.4,1.6-4,1.6h-8.1c-1.7,0-3-0.5-4.1-1.6s-1.5-2.4-1.5-4.1V46.8z M101.2,53.6h4.6v4
					c0,0.8-0.3,1.4-0.8,1.8c-0.5,0.4-1.2,0.5-2.1,0.5h-1.7v9.8c0,1.3-0.5,2.4-1.3,3.3c-0.9,0.9-2,1.3-3.3,1.3h-2.6v-0.7
					c-0.3,0.1-0.9,0.2-1.5,0.3c-0.7,0.1-1.5,0.2-2.4,0.2H76.2c-0.8,0-1.4-0.2-1.9-0.6c-0.5-0.4-0.7-1-0.7-1.8v-3.2H80v-5.1h7.2v5.1
					h3c0.8,0,1.5-0.1,2.3-0.2c0.7-0.1,1.2-0.2,1.4-0.3V41.3h7.3V53.6z M81.1,55.1c0,0.7,0.1,1.2,0.4,1.5c0.2,0.2,0.6,0.3,0.9,0.3
					h1.8c0.4,0,0.7-0.1,0.9-0.3c0.2-0.2,0.4-0.7,0.4-1.5v-6.5c0-0.8-0.1-1.3-0.4-1.5c-0.2-0.2-0.6-0.3-0.9-0.3h-1.8
					c-0.4,0-0.7,0.1-0.9,0.3c-0.2,0.2-0.4,0.7-0.4,1.5V55.1z"/>
				<path class="st0" d="M107.6,46.8c0-1.7,0.5-3.1,1.5-4.1c1-1,2.3-1.5,4-1.5h7.7c1.7,0,3,0.5,4,1.5L125,43h3.5v-1.7h7.3V57
					c0,0.7-0.3,1.3-0.8,1.8s-1.2,0.7-2,0.7h-4.5v-2.7h-3.1c-0.2,0.3-0.4,0.6-0.6,0.9c-1,1-2.3,1.5-4,1.5h-7.7c-1.7,0-3-0.5-4-1.6
					s-1.5-2.4-1.5-4.1V46.8z M136.2,69.3c0,1.7-0.6,3-1.7,3.9c-1.1,0.9-2.6,1.4-4.3,1.4h-15.3c-1.7,0-3.1-0.5-4.2-1.4
					c-1.2-0.9-1.7-2.2-1.7-3.9v-3.8c0-1.7,0.6-3,1.7-3.9c1.2-0.9,2.6-1.3,4.2-1.3h15.3c1.7,0,3.1,0.5,4.3,1.3
					c1.1,0.9,1.7,2.2,1.7,3.9V69.3z M114.9,51.7c0,0.7,0.1,1.2,0.4,1.5c0.2,0.2,0.6,0.3,0.9,0.3h1.4c0.4,0,0.7-0.1,0.9-0.3
					c0.2-0.2,0.4-0.7,0.4-1.5v-3c0-0.8-0.1-1.3-0.4-1.5s-0.6-0.3-0.9-0.3h-1.4c-0.4,0-0.7,0.1-0.9,0.3c-0.2,0.2-0.4,0.7-0.4,1.5
					V51.7z M128.9,67.2c0-0.4-0.1-0.7-0.3-0.9c-0.2-0.2-0.7-0.4-1.5-0.4h-9c-0.7,0-1.2,0.1-1.5,0.4c-0.2,0.2-0.3,0.6-0.3,0.9v0.3
					c0,0.4,0.1,0.7,0.3,0.9c0.2,0.2,0.7,0.4,1.5,0.4h9c0.8,0,1.3-0.1,1.5-0.4c0.2-0.2,0.3-0.6,0.3-0.9V67.2z M126.2,48.5v2.7h2.3
					v-2.7H126.2z"/>
				<path class="st0" d="M147,42.8v-3.4h7.3v3.4h6v3.5c0,0.7-0.2,1.2-0.5,1.5c-0.3,0.3-0.9,0.5-1.6,0.5h-15.6
					c-0.7,0-1.2-0.2-1.6-0.5c-0.3-0.3-0.5-0.8-0.5-1.5v-3.5H147z M168.4,53.6h4.6v4c0,0.8-0.3,1.4-0.8,1.8c-0.5,0.4-1.2,0.5-2.1,0.5
					h-1.7v9.8c0,1.3-0.5,2.4-1.4,3.3c-0.9,0.9-2,1.3-3.3,1.3h-2.6v-0.7c-0.3,0.1-0.9,0.2-1.5,0.3c-0.7,0.1-1.5,0.2-2.4,0.2h-13.8
					c-0.8,0-1.4-0.2-1.9-0.6c-0.5-0.4-0.7-1-0.7-1.8v-3.2h6.4v-3h-0.3c-1.7,0-3-0.5-4-1.6c-1-1-1.5-2.4-1.5-4.1v-5
					c0-1.7,0.5-3.1,1.5-4.1c1-1,2.3-1.5,4-1.5h7.6c1.7,0,3,0.5,4,1.5c1,1,1.5,2.4,1.5,4.1v5c0,1.7-0.5,3-1.5,4.1c-1,1-2.3,1.6-4,1.6
					h-0.1v3h3c0.8,0,1.5-0.1,2.3-0.2c0.7-0.1,1.2-0.2,1.4-0.3V41.3h7.3V53.6z M148.7,58.1c0,0.7,0.1,1.2,0.4,1.5
					c0.3,0.2,0.6,0.3,1,0.3h1.3c0.4,0,0.7-0.1,0.9-0.3c0.2-0.2,0.4-0.7,0.4-1.5v-1.4c0-0.8-0.1-1.3-0.4-1.5
					c-0.2-0.2-0.6-0.3-0.9-0.3h-1.3c-0.4,0-0.7,0.1-1,0.3c-0.3,0.2-0.4,0.7-0.4,1.5V58.1z"/>
			</g>
		</g>
	</g>
	<g>
		<path class="st3" d="M43,20H26c-1.1,0-2-0.9-2-2v-6c0-1.1,0.9-2,2-2h17c1.1,0,2,0.9,2,2v6C45,19.1,44.1,20,43,20z"/>
		<path class="st3" d="M72,20H55c-1.1,0-2-0.9-2-2v-6c0-1.1,0.9-2,2-2h17c1.1,0,2,0.9,2,2v6C74,19.1,73.1,20,72,20z"/>
		<path class="st3" d="M100,20H83c-1.1,0-2-0.9-2-2v-6c0-1.1,0.9-2,2-2h17c1.1,0,2,0.9,2,2v6C102,19.1,101.1,20,100,20z"/>
		<path class="st3" d="M129,20h-17c-1.1,0-2-0.9-2-2v-6c0-1.1,0.9-2,2-2h17c1.1,0,2,0.9,2,2v6C131,19.1,130.1,20,129,20z"/>
		<path class="st3" d="M157,20h-17c-1.1,0-2-0.9-2-2v-6c0-1.1,0.9-2,2-2h17c1.1,0,2,0.9,2,2v6C159,19.1,158.1,20,157,20z"/>
	</g>
	<g>
		<path class="st3" d="M43,105H26c-1.1,0-2-0.9-2-2v-6c0-1.1,0.9-2,2-2h17c1.1,0,2,0.9,2,2v6C45,104.1,44.1,105,43,105z"/>
		<path class="st3" d="M72,105H55c-1.1,0-2-0.9-2-2v-6c0-1.1,0.9-2,2-2h17c1.1,0,2,0.9,2,2v6C74,104.1,73.1,105,72,105z"/>
		<path class="st3" d="M100,105H83c-1.1,0-2-0.9-2-2v-6c0-1.1,0.9-2,2-2h17c1.1,0,2,0.9,2,2v6C102,104.1,101.1,105,100,105z"/>
		<path class="st3" d="M129,105h-17c-1.1,0-2-0.9-2-2v-6c0-1.1,0.9-2,2-2h17c1.1,0,2,0.9,2,2v6C131,104.1,130.1,105,129,105z"/>
		<path class="st3" d="M157,105h-17c-1.1,0-2-0.9-2-2v-6c0-1.1,0.9-2,2-2h17c1.1,0,2,0.9,2,2v6C159,104.1,158.1,105,157,105z"/>
	</g>
</g>
</svg>
