<?xml version="1.0" encoding="utf-8"?>
<!-- Generator: Adobe Illustrator 23.0.2, SVG Export Plug-In . SVG Version: 6.00 Build 0)  -->
<svg version="1.1" id="레이어_1" xmlns="http://www.w3.org/2000/svg" xmlns:xlink="http://www.w3.org/1999/xlink" x="0px"
	 y="0px" viewBox="0 0 84.3 84.8" style="enable-background:new 0 0 84.3 84.8;" xml:space="preserve">
<style type="text/css">
	.st0{fill:#ECC488;}
</style>
<g>
	<g transform="matrix( 1, 0, 0, 1, 0,0) ">
		<g>
			<g>
				<path class="st0" d="M83.2,77.2c0-1.7-0.6-3.1-1.8-4.3L66.6,58.1c4.4-6,6.6-13,6.7-20.8c0-10-3.5-18.5-10.5-25.5
					c-7-7-15.5-10.5-25.4-10.5c-10,0-18.5,3.5-25.5,10.5l0,0l0,0c-7,7-10.5,15.5-10.5,25.5c0,10,3.5,18.4,10.5,25.4
					c7,7,15.5,10.6,25.5,10.5c7.9,0,14.8-2.2,20.8-6.7L73,81.5c1.2,1.2,2.6,1.8,4.3,1.8c1.7,0,3.1-0.6,4.3-1.8
					C82.7,80.3,83.2,78.9,83.2,77.2 M54.2,20.2c4.7,4.7,7,10.4,7,17c0,6.5-2.2,12-6.8,16.7c-0.1,0.1-0.2,0.2-0.3,0.3
					c-0.1,0.1-0.2,0.2-0.3,0.3c-4.6,4.5-10.2,6.8-16.7,6.8c-6.6,0-12.3-2.4-17-7c-4.7-4.7-7-10.3-7-17c0-6.6,2.3-12.3,7-17l0,0
					c4.7-4.6,10.4-7,17-7C43.9,13.2,49.5,15.6,54.2,20.2z"/>
			</g>
		</g>
	</g>
</g>
</svg>
